name analog
datacolumns 19
datarows 64
range 0.4335 0.465
endheader
time	ground_force_vx	ground_force_vy	ground_force_vz	ground_force_px	ground_force_py	ground_force_pz	l_ground_force_vx	l_ground_force_vy	l_ground_force_vz	l_ground_force_px	l_ground_force_py	l_ground_force_pz	ground_torque_x	ground_torque_y	ground_torque_z	l_ground_torque_x	l_ground_torque_y	l_ground_torque_z
0.4335	-0.0	-0.0	-0.0	-0.0	-0.0	-0.0	-12.084150314331056	-0.0042917132377624	-877.9544677734375	-0.0	-0.0	-0.0	-0.0	-0.0	-0.0	248602.765625	-5494.82275390625	-4413.3447265625
0.434	-0.0	-0.0	-0.0	-0.0	-0.0	-0.0	-12.75043487548828	-0.0430053770542144	-873.4073486328125	-0.0	-0.0	-0.0	-0.0	-0.0	-0.0	247297.484375	-4657.43798828125	-4406.5791015625
0.4345	-0.0	-0.0	-0.0	-0.0	-0.0	-0.0	-13.26095199584961	-0.8163232207298279	-869.8316650390625	-0.0	-0.0	-0.0	-0.0	-0.0	-0.0	245965.546875	-3856.38134765625	-4392.7197265625
0.435	-0.0	-0.0	-0.0	-0.0	-0.0	-0.0	-13.618532180786133	-1.6325308084487915	-865.2822265625	-0.0	-0.0	-0.0	-0.0	-0.0	-0.0	244573.03125	-3413.726806640625	-4289.853515625
0.4355	-0.0	-0.0	-0.0	-0.0	-0.0	-0.0	-13.881729125976562	-2.1440541744232178	-862.6693725585938	-0.0	-0.0	-0.0	-0.0	-0.0	-0.0	243875.5	-2977.668212890625	-4259.53857421875
0.436	-0.0	-0.0	-0.0	-0.0	-0.0	-0.0	-14.28243637084961	-2.0559563636779785	-860.2255249023438	-0.0	-0.0	-0.0	-0.0	-0.0	-0.0	242873.9375	-2725.809326171875	-4125.7333984375
0.4365	-0.0	-0.0	-0.0	-0.0	-0.0	-0.0	-14.10501480102539	-1.9854702949523928	-858.6476440429688	-0.0	-0.0	-0.0	-0.0	-0.0	-0.0	242755.1875	-2409.40185546875	-4029.419921875
0.437	-0.0	-0.0	-0.0	-0.0	-0.0	-0.0	-14.197440147399902	-2.448153257369995	-859.7095336914062	-0.0	-0.0	-0.0	-0.0	-0.0	-0.0	242966.5	-2195.514892578125	-3977.352783203125
0.4375	-0.0	-0.0	-0.0	-0.0	-0.0	-0.0	-14.34997272491455	-2.632566213607788	-860.1428833007812	-0.0	-0.0	-0.0	-0.0	-0.0	-0.0	243254.046875	-2101.379638671875	-4118.6728515625
0.438	-0.0	-0.0	-0.0	-0.0	-0.0	-0.0	-14.814701080322266	-2.5823686122894287	-861.8057861328125	-0.0	-0.0	-0.0	-0.0	-0.0	-0.0	243796.296875	-2522.71728515625	-4142.9580078125
0.4385	-0.0	-0.0	-0.0	-0.0	-0.0	-0.0	-14.497492790222168	-1.0598602294921875	-864.41650390625	-0.0	-0.0	-0.0	-0.0	-0.0	-0.0	244851.828125	-2748.26953125	-4067.511474609375
0.439	-0.0	-0.0	-0.0	-0.0	-0.0	-0.0	-13.911306381225586	-0.3370717167854309	-867.1087646484375	-0.0	-0.0	-0.0	-0.0	-0.0	-0.0	246005.453125	-3197.372802734375	-3983.384521484375
0.4395	-0.0	-0.0	-0.0	-0.0	-0.0	-0.0	-12.221129417419434	0.6808515191078186	-870.1682739257812	-0.0	-0.0	-0.0	-0.0	-0.0	-0.0	247004.03125	-3698.6552734375	-3648.556396484375
0.44	-0.0	-0.0	-0.0	-0.0	-0.0	-0.0	-10.227800369262695	1.4390928745269775	-872.4273681640625	-0.0	-0.0	-0.0	-0.0	-0.0	-0.0	248011.984375	-4576.83544921875	-3098.951904296875
0.4405	-0.0	-0.0	-0.0	-0.0	-0.0	-0.0	-8.333473205566406	1.5844733715057373	-873.680419921875	-0.0	-0.0	-0.0	-0.0	-0.0	-0.0	248641.71875	-4830.9951171875	-2593.265380859375
0.441	-0.0	-0.0	-0.0	-0.0	-0.0	-0.0	-7.227142333984375	1.6049344539642334	-874.0681762695312	-0.0	-0.0	-0.0	-0.0	-0.0	-0.0	248873.96875	-5310.40234375	-2454.81103515625
0.4415	-0.0	-0.0	-0.0	-0.0	-0.0	-0.0	-7.150028228759766	2.269897699356079	-876.265869140625	-0.0	-0.0	-0.0	-0.0	-0.0	-0.0	249006.03125	-5359.85205078125	-2356.85693359375
0.442	-0.0	-0.0	-0.0	-0.0	-0.0	-0.0	-6.653308868408203	2.676241636276245	-875.6484985351562	-0.0	-0.0	-0.0	-0.0	-0.0	-0.0	248815.921875	-5336.3662109375	-2281.272216796875
0.4425	-0.0	-0.0	-0.0	-0.0	-0.0	-0.0	-6.844982624053955	2.711157321929932	-875.6722412109375	-0.0	-0.0	-0.0	-0.0	-0.0	-0.0	249128.8125	-5275.23388671875	-2429.744873046875
0.443	-0.0	-0.0	-0.0	-0.0	-0.0	-0.0	-7.581485748291016	3.5467677116394043	-875.6464233398438	-0.0	-0.0	-0.0	-0.0	-0.0	-0.0	249397.484375	-5034.259765625	-2462.21044921875
0.4435	-0.0	-0.0	-0.0	-0.0	-0.0	-0.0	-7.895259857177734	4.348165988922119	-875.1353149414062	-0.0	-0.0	-0.0	-0.0	-0.0	-0.0	250114.609375	-4908.3837890625	-2724.49658203125
0.444	-0.0	-0.0	-0.0	-0.0	-0.0	-0.0	-8.072681427001953	4.789699554443359	-876.93310546875	-0.0	-0.0	-0.0	-0.0	-0.0	-0.0	250345.359375	-4823.86474609375	-3018.954833984375
0.4445	-0.0	-0.0	-0.0	-0.0	-0.0	-0.0	-7.963610172271728	5.102386474609375	-879.6445922851562	-0.0	-0.0	-0.0	-0.0	-0.0	-0.0	251131.796875	-4906.9384765625	-2923.113037109375
0.445	-0.0	-0.0	-0.0	-0.0	-0.0	-0.0	-7.915579319000244	5.183348178863525	-881.6585083007812	-0.0	-0.0	-0.0	-0.0	-0.0	-0.0	251631.9375	-4505.177734375	-2970.717041015625
0.4455	-0.0	-0.0	-0.0	-0.0	-0.0	-0.0	-8.564457893371582	5.564266204833984	-885.797607421875	-0.0	-0.0	-0.0	-0.0	-0.0	-0.0	252630.53125	-4275.7451171875	-3247.41357421875
0.446	-0.0	-0.0	-0.0	-0.0	-0.0	-0.0	-9.758186340332031	5.720795154571533	-887.8751831054688	-0.0	-0.0	-0.0	-0.0	-0.0	-0.0	253232.703125	-4126.93701171875	-3505.84375
0.4465	-0.0	-0.0	-0.0	-0.0	-0.0	-0.0	-10.734004974365234	6.162477970123291	-890.52734375	-0.0	-0.0	-0.0	-0.0	-0.0	-0.0	253528.296875	-3638.1953125	-3612.8681640625
0.447	-0.0	-0.0	-0.0	-0.0	-0.0	-0.0	-11.887245178222656	5.880781650543213	-893.7491455078125	-0.0	-0.0	-0.0	-0.0	-0.0	-0.0	253824.984375	-3558.44189453125	-3867.17724609375
0.4475	-0.0	-0.0	-0.0	-0.0	-0.0	-0.0	-12.368019104003906	5.6725287437438965	-894.17724609375	-0.0	-0.0	-0.0	-0.0	-0.0	-0.0	254254.0625	-3307.21728515625	-4005.303466796875
0.448	-0.0	-0.0	-0.0	-0.0	-0.0	-0.0	-12.242088317871094	5.328023910522461	-893.7931518554688	-0.0	-0.0	-0.0	-0.0	-0.0	-0.0	254302.40625	-3178.174072265625	-4037.96484375
0.4485	-0.0	-0.0	-0.0	-0.0	-0.0	-0.0	-12.439422607421877	4.70087480545044	-895.8873291015625	-0.0	-0.0	-0.0	-0.0	-0.0	-0.0	254242.796875	-3220.5029296875	-3966.287353515625
0.449	-0.0	-0.0	-0.0	-0.0	-0.0	-0.0	-12.144085884094238	4.268459796905518	-897.8616943359375	-0.0	-0.0	-0.0	-0.0	-0.0	-0.0	253769.4375	-3461.4892578125	-4117.57568359375
0.4495	-0.0	-0.0	-0.0	-0.0	-0.0	-0.0	-12.528000831604004	3.267902374267578	-895.0690307617188	-0.0	-0.0	-0.0	-0.0	-0.0	-0.0	253793.109375	-3212.46337890625	-4071.85400390625
0.45	-0.0	-0.0	-0.0	-0.0	-0.0	-0.0	-12.596931457519531	2.924550294876098	-892.66455078125	-0.0	-0.0	-0.0	-0.0	-0.0	-0.0	252761.46875	-3190.828369140625	-4068.852783203125
0.4505	-0.0	-0.0	-0.0	-0.0	-0.0	-0.0	-12.409906387329102	2.718395709991455	-890.4140625	-0.0	-0.0	-0.0	-0.0	-0.0	-0.0	251927.640625	-3252.3173828125	-4065.53369140625
0.451	-0.0	-0.0	-0.0	-0.0	-0.0	-0.0	-11.876954078674316	2.9341344833374023	-887.77490234375	-0.0	-0.0	-0.0	-0.0	-0.0	-0.0	251077.1875	-3301.29443359375	-3916.47216796875
0.4515	-0.0	-0.0	-0.0	-0.0	-0.0	-0.0	-11.473711013793944	3.1302146911621094	-885.797607421875	-0.0	-0.0	-0.0	-0.0	-0.0	-0.0	250228.890625	-3615.78466796875	-3662.583740234375
0.452	-0.0	-0.0	-0.0	-0.0	-0.0	-0.0	-10.004830360412598	3.8085415363311768	-883.1578369140625	-0.0	-0.0	-0.0	-0.0	-0.0	-0.0	249398.6875	-3670.279296875	-3371.21826171875
0.4525	-0.0	-0.0	-0.0	-0.0	-0.0	-0.0	-8.161392211914062	3.993821144104004	-879.5894165039062	-0.0	-0.0	-0.0	-0.0	-0.0	-0.0	248101.078125	-4169.17529296875	-3034.1962890625
0.453	-0.0	-0.0	-0.0	-0.0	-0.0	-0.0	-5.766201019287109	4.454693794250488	-878.1163330078125	-0.0	-0.0	-0.0	-0.0	-0.0	-0.0	246995.546875	-4976.86962890625	-2336.216064453125
0.4535	-0.0	-0.0	-0.0	-0.0	-0.0	-0.0	-2.869511127471924	4.888323783874512	-875.4751586914062	-0.0	-0.0	-0.0	-0.0	-0.0	-0.0	246119.8125	-5591.6728515625	-1774.1827392578125
0.454	-0.0	-0.0	-0.0	-0.0	-0.0	-0.0	-0.4358959496021271	5.034336090087891	-874.3213500976562	-0.0	-0.0	-0.0	-0.0	-0.0	-0.0	245069.03125	-6375.48681640625	-1176.5872802734375
0.4545	-0.0	-0.0	-0.0	-0.0	-0.0	-0.0	2.0284323692321777	4.504405975341797	-874.3980712890625	-0.0	-0.0	-0.0	-0.0	-0.0	-0.0	244277.59375	-7020.619140625	-590.694091796875
0.455	-0.0	-0.0	-0.0	-0.0	-0.0	-0.0	3.833704471588135	4.1320624351501465	-873.926513671875	-0.0	-0.0	-0.0	-0.0	-0.0	-0.0	243505.734375	-7656.56005859375	96.83035278320312
0.4555	-0.0	-0.0	-0.0	-0.0	-0.0	-0.0	4.936392307281494	3.501593828201294	-872.777099609375	-0.0	-0.0	-0.0	-0.0	-0.0	-0.0	242535.375	-8114.84228515625	188.7711944580078
0.456	-0.0	-0.0	-0.0	-0.0	-0.0	-0.0	5.81066370010376	2.5928263664245605	-871.4075317382812	-0.0	-0.0	-0.0	-0.0	-0.0	-0.0	241321.09375	-8436.625	445.5345458984375
0.4565	-0.0	-0.0	-0.0	-0.0	-0.0	-0.0	6.760986804962158	1.3564954996109009	-868.1161499023438	-0.0	-0.0	-0.0	-0.0	-0.0	-0.0	240656.359375	-8738.0751953125	604.776123046875
0.457	-0.0	-0.0	-0.0	-0.0	-0.0	-0.0	6.900515556335449	0.2649650573730469	-867.4415893554688	-0.0	-0.0	-0.0	-0.0	-0.0	-0.0	239712.0	-9191.974609375	693.5765380859375
0.4575	-0.0	-0.0	-0.0	-0.0	-0.0	-0.0	7.908567428588867	-1.0973966121673584	-867.990966796875	-0.0	-0.0	-0.0	-0.0	-0.0	-0.0	238947.921875	-9476.5478515625	954.5950927734376
0.458	-0.0	-0.0	-0.0	-0.0	-0.0	-0.0	7.951637268066406	-2.0448803901672363	-868.4879760742188	-0.0	-0.0	-0.0	-0.0	-0.0	-0.0	238774.609375	-9868.884765625	1104.461181640625
0.4585	-0.0	-0.0	-0.0	-0.0	-0.0	-0.0	8.763649940490723	-2.989157199859619	-868.0646362304688	-0.0	-0.0	-0.0	-0.0	-0.0	-0.0	238798.734375	-10314.017578125	1371.6500244140625
0.459	-0.0	-0.0	-0.0	-0.0	-0.0	-0.0	9.487383842468262	-4.05814790725708	-870.5819702148438	-0.0	-0.0	-0.0	-0.0	-0.0	-0.0	238745.0625	-10784.607421875	1471.744873046875
0.4595	-0.0	-0.0	-0.0	-0.0	-0.0	-0.0	9.702282905578612	-4.272104740142822	-872.8233032226562	-0.0	-0.0	-0.0	-0.0	-0.0	-0.0	239046.859375	-11366.068359375	1648.307861328125
0.46	-0.0	-0.0	-0.0	-0.0	-0.0	-0.0	9.17432975769043	-4.416084289550781	-874.9739990234375	-0.0	-0.0	-0.0	-0.0	-0.0	-0.0	239067.109375	-11663.818359375	1543.093505859375
0.4605	-0.0	-0.0	-0.0	-0.0	-0.0	-0.0	9.10400390625	-4.647987842559815	-876.661865234375	-0.0	-0.0	-0.0	-0.0	-0.0	-0.0	239268.4375	-11817.33984375	1369.8399658203125
0.461	-0.0	-0.0	-0.0	-0.0	-0.0	-0.0	8.726987838745117	-4.4528422355651855	-876.9962158203125	-0.0	-0.0	-0.0	-0.0	-0.0	-0.0	239018.609375	-12070.7099609375	1398.0853271484375
0.4615	-0.0	-0.0	-0.0	-0.0	-0.0	-0.0	8.782367706298828	-5.351014137268066	-876.587646484375	-0.0	-0.0	-0.0	-0.0	-0.0	-0.0	238676.828125	-12111.6123046875	1405.2445068359375
0.462	-0.0	-0.0	-0.0	-0.0	-0.0	-0.0	8.993518829345703	-5.424116611480713	-877.1294555664062	-0.0	-0.0	-0.0	-0.0	-0.0	-0.0	238373.796875	-12135.966796875	1357.307373046875
0.4625	-0.0	-0.0	-0.0	-0.0	-0.0	-0.0	7.770044803619385	-6.024046897888184	-876.4424438476562	-0.0	-0.0	-0.0	-0.0	-0.0	-0.0	237985.171875	-12135.326171875	1100.712646484375
0.463	-0.0	-0.0	-0.0	-0.0	-0.0	-0.0	6.885365009307861	-6.096532821655273	-875.8779907226562	-0.0	-0.0	-0.0	-0.0	-0.0	-0.0	237645.0625	-11972.3994140625	786.0081176757812
0.4635	-0.0	-0.0	-0.0	-0.0	-0.0	-0.0	4.985974311828613	-6.447483062744141	-875.3231201171875	-0.0	-0.0	-0.0	-0.0	-0.0	-0.0	237269.5625	-11894.0537109375	380.7485656738281
0.464	-0.0	-0.0	-0.0	-0.0	-0.0	-0.0	4.062600612640381	-6.676415920257568	-874.2686767578125	-0.0	-0.0	-0.0	-0.0	-0.0	-0.0	236936.28125	-11990.28125	66.57257843017578
0.4645	-0.0	-0.0	-0.0	-0.0	-0.0	-0.0	2.4102728366851807	-6.183989524841309	-873.0210571289062	-0.0	-0.0	-0.0	-0.0	-0.0	-0.0	236722.40625	-11721.140625	-344.2559509277344
0.465	-0.0	-0.0	-0.0	-0.0	-0.0	-0.0	1.2252264022827148	-6.199169158935547	-872.3224487304688	-0.0	-0.0	-0.0	-0.0	-0.0	-0.0	236366.953125	-11694.158203125	-754.3399047851562
